<?xml version="1.0" encoding="utf-8"?>
<!-- Generator: Adobe Illustrator 24.0.3, SVG Export Plug-In . SVG Version: 6.00 Build 0)  -->
<svg version="1.1" id="Layer_1" xmlns="http://www.w3.org/2000/svg" xmlns:xlink="http://www.w3.org/1999/xlink" x="0px" y="0px"
	 viewBox="0 0 512 512" style="enable-background:new 0 0 512 512;" xml:space="preserve">
<style type="text/css">
	.st0{fill:#FFFFFF;}
</style>
<g>
	<path class="st0" d="M387.5,344.8c-9.9,0-43.2,39.9-52.1,44.3s-65,2.9-127.4-59.6c-62.4-62.4-83.8-134.2-83.8-145.5
		s52.1-46.1,53.5-54.3C179.2,121.6,109.2,0,97.8,0S0,105,0,113.7c0,8.7,7.9,121.3,150.4,263.8s236.4,134.3,247.8,134.4
		c11.4,0,113.8-75.6,113.8-85.3C511.9,417,397.4,344.8,387.5,344.8z M332.1,179.9c23.4,23.4,32.2,55.9,26.4,86.1l44.6-6.3
		c3.4-39.7-9.5-80.6-39.8-110.9c-30.4-30.4-71.2-43.2-110.9-39.9l-6.3,44.6C276.2,147.7,308.7,156.5,332.1,179.9z M408.4,103.6
		c40.5,40.5,60.3,93.9,59.6,147l43.9-6.2C511.2,182,487.1,120,439.6,72.4C392,24.9,330,0.9,267.6,0l-6.2,44
		C314.5,43.2,367.9,63,408.4,103.6z"/>
</g>
</svg>
